<mxfile>
    <diagram id="qntKCeMvmTnqnKddpRTG" name="Page-1">
        <mxGraphModel dx="1305" dy="550" grid="1" gridSize="10" guides="1" tooltips="1" connect="1" arrows="1" fold="1" page="1" pageScale="1" pageWidth="850" pageHeight="1100" math="0" shadow="0">
            <root>
                <mxCell id="0"/>
                <mxCell id="1" parent="0"/>
                <mxCell id="mHHAnYCp3MrxDGlLW-3l-1" value="AppModule" style="rounded=0;whiteSpace=wrap;html=1;" parent="1" vertex="1">
                    <mxGeometry x="365" y="340" width="120" height="60" as="geometry"/>
                </mxCell>
                <mxCell id="mHHAnYCp3MrxDGlLW-3l-6" value="Use" style="endArrow=open;endSize=12;dashed=1;html=1;" parent="1" target="mHHAnYCp3MrxDGlLW-3l-7" edge="1">
                    <mxGeometry x="-0.0288" y="10" width="160" relative="1" as="geometry">
                        <mxPoint x="485" y="369.5" as="sourcePoint"/>
                        <mxPoint x="645" y="369.5" as="targetPoint"/>
                        <mxPoint as="offset"/>
                    </mxGeometry>
                </mxCell>
                <mxCell id="mHHAnYCp3MrxDGlLW-3l-7" value="ConfigurationModule" style="rounded=0;whiteSpace=wrap;html=1;" parent="1" vertex="1">
                    <mxGeometry x="660" y="340" width="120" height="60" as="geometry"/>
                </mxCell>
                <mxCell id="mHHAnYCp3MrxDGlLW-3l-9" value="Use" style="endArrow=open;endSize=12;dashed=1;html=1;exitX=0.5;exitY=0;exitDx=0;exitDy=0;" parent="1" source="mHHAnYCp3MrxDGlLW-3l-1" edge="1">
                    <mxGeometry x="-0.0533" y="15" width="160" relative="1" as="geometry">
                        <mxPoint x="425" y="320" as="sourcePoint"/>
                        <mxPoint x="425" y="171" as="targetPoint"/>
                        <Array as="points"/>
                        <mxPoint as="offset"/>
                    </mxGeometry>
                </mxCell>
                <mxCell id="mHHAnYCp3MrxDGlLW-3l-10" value="CoreModule" style="html=1;" parent="1" vertex="1">
                    <mxGeometry x="370" y="120" width="110" height="50" as="geometry"/>
                </mxCell>
                <mxCell id="mHHAnYCp3MrxDGlLW-3l-11" value="Use" style="endArrow=open;endSize=12;dashed=1;html=1;" parent="1" edge="1">
                    <mxGeometry x="-0.0769" y="-20" width="160" relative="1" as="geometry">
                        <mxPoint x="425" y="400" as="sourcePoint"/>
                        <mxPoint x="325" y="530" as="targetPoint"/>
                        <mxPoint as="offset"/>
                    </mxGeometry>
                </mxCell>
                <mxCell id="mHHAnYCp3MrxDGlLW-3l-13" value="Use" style="endArrow=open;endSize=12;dashed=1;html=1;" parent="1" edge="1">
                    <mxGeometry x="-0.0222" y="23" width="160" relative="1" as="geometry">
                        <mxPoint x="425" y="400" as="sourcePoint"/>
                        <mxPoint x="520" y="530" as="targetPoint"/>
                        <mxPoint as="offset"/>
                    </mxGeometry>
                </mxCell>
                <mxCell id="mHHAnYCp3MrxDGlLW-3l-14" value="DrawModule" style="rounded=0;whiteSpace=wrap;html=1;" parent="1" vertex="1">
                    <mxGeometry x="270" y="530" width="120" height="60" as="geometry"/>
                </mxCell>
                <mxCell id="mHHAnYCp3MrxDGlLW-3l-15" value="HistoryModule" style="rounded=0;whiteSpace=wrap;html=1;" parent="1" vertex="1">
                    <mxGeometry x="460" y="530" width="120" height="60" as="geometry"/>
                </mxCell>
                <mxCell id="mHHAnYCp3MrxDGlLW-3l-23" value="DrawConfigModule" style="html=1;" parent="1" vertex="1">
                    <mxGeometry x="70" y="535" width="130" height="50" as="geometry"/>
                </mxCell>
                <mxCell id="mHHAnYCp3MrxDGlLW-3l-24" value="HistoryConfigModule" style="html=1;" parent="1" vertex="1">
                    <mxGeometry x="650" y="535" width="130" height="50" as="geometry"/>
                </mxCell>
                <mxCell id="mHHAnYCp3MrxDGlLW-3l-27" value="Use" style="endArrow=open;endSize=12;dashed=1;html=1;exitX=1;exitY=0.5;exitDx=0;exitDy=0;entryX=0;entryY=0.5;entryDx=0;entryDy=0;" parent="1" source="mHHAnYCp3MrxDGlLW-3l-15" target="mHHAnYCp3MrxDGlLW-3l-24" edge="1">
                    <mxGeometry x="-0.1429" y="10" width="160" relative="1" as="geometry">
                        <mxPoint x="365" y="530" as="sourcePoint"/>
                        <mxPoint x="590" y="690" as="targetPoint"/>
                        <mxPoint as="offset"/>
                    </mxGeometry>
                </mxCell>
                <mxCell id="mHHAnYCp3MrxDGlLW-3l-28" value="Use" style="endArrow=open;endSize=12;dashed=1;html=1;entryX=1;entryY=0.5;entryDx=0;entryDy=0;exitX=0;exitY=0.5;exitDx=0;exitDy=0;" parent="1" source="mHHAnYCp3MrxDGlLW-3l-14" target="mHHAnYCp3MrxDGlLW-3l-23" edge="1">
                    <mxGeometry x="-0.1429" y="10" width="160" relative="1" as="geometry">
                        <mxPoint x="260" y="560" as="sourcePoint"/>
                        <mxPoint x="340" y="559.5" as="targetPoint"/>
                        <mxPoint as="offset"/>
                    </mxGeometry>
                </mxCell>
            </root>
        </mxGraphModel>
    </diagram>
</mxfile>
